<mxfile host="65bd71144e">
    <diagram id="dT4eaH6bii9O6tbr7AXM" name="Page-1">
        <mxGraphModel dx="1737" dy="778" grid="1" gridSize="10" guides="1" tooltips="1" connect="1" arrows="1" fold="1" page="1" pageScale="1" pageWidth="850" pageHeight="1100" math="0" shadow="0">
            <root>
                <mxCell id="0"/>
                <mxCell id="1" parent="0"/>
                <mxCell id="24" value="All of manhwas" style="swimlane;startSize=20;horizontal=1;containerType=tree;newEdgeStyle={&quot;edgeStyle&quot;:&quot;elbowEdgeStyle&quot;,&quot;startArrow&quot;:&quot;none&quot;,&quot;endArrow&quot;:&quot;none&quot;};gradientColor=none;swimlaneFillColor=default;" parent="1" vertex="1">
                    <mxGeometry x="-500" y="80" width="970" height="350" as="geometry"/>
                </mxCell>
                <mxCell id="25" value="" style="edgeStyle=elbowEdgeStyle;elbow=vertical;sourcePerimeterSpacing=0;targetPerimeterSpacing=0;startArrow=none;endArrow=none;rounded=0;curved=0;" parent="24" source="27" target="28" edge="1">
                    <mxGeometry relative="1" as="geometry"/>
                </mxCell>
                <mxCell id="26" value="" style="edgeStyle=elbowEdgeStyle;elbow=vertical;sourcePerimeterSpacing=0;targetPerimeterSpacing=0;startArrow=none;endArrow=none;rounded=0;curved=0;" parent="24" source="27" target="29" edge="1">
                    <mxGeometry relative="1" as="geometry"/>
                </mxCell>
                <UserObject label="Manhwa" treeRoot="1" id="27">
                    <mxCell style="whiteSpace=wrap;html=1;align=center;treeFolding=1;treeMoving=1;newEdgeStyle={&quot;edgeStyle&quot;:&quot;elbowEdgeStyle&quot;,&quot;startArrow&quot;:&quot;none&quot;,&quot;endArrow&quot;:&quot;none&quot;};" parent="24" vertex="1">
                        <mxGeometry x="425" y="90" width="120" height="60" as="geometry"/>
                    </mxCell>
                </UserObject>
                <mxCell id="28" value="Title&lt;br&gt;type: str" style="whiteSpace=wrap;html=1;align=center;verticalAlign=middle;treeFolding=1;treeMoving=1;newEdgeStyle={&quot;edgeStyle&quot;:&quot;elbowEdgeStyle&quot;,&quot;startArrow&quot;:&quot;none&quot;,&quot;endArrow&quot;:&quot;none&quot;};gradientColor=none;" parent="24" vertex="1">
                    <mxGeometry x="645" y="150" width="100" height="60" as="geometry"/>
                </mxCell>
                <mxCell id="29" value="Note&lt;br&gt;type: num" style="whiteSpace=wrap;html=1;align=center;verticalAlign=middle;treeFolding=1;treeMoving=1;newEdgeStyle={&quot;edgeStyle&quot;:&quot;elbowEdgeStyle&quot;,&quot;startArrow&quot;:&quot;none&quot;,&quot;endArrow&quot;:&quot;none&quot;};" parent="24" vertex="1">
                    <mxGeometry x="225" y="30" width="100" height="60" as="geometry"/>
                </mxCell>
                <mxCell id="30" value="" style="edgeStyle=elbowEdgeStyle;html=1;elbow=horizontal;startArrow=none;endArrow=none;" parent="24" source="27" target="31" edge="1">
                    <mxGeometry relative="1" as="geometry"/>
                </mxCell>
                <UserObject label="Genres&lt;br&gt;type: text" treeRoot="1" id="31">
                    <mxCell style="whiteSpace=wrap;html=1;align=center;treeFolding=1;treeMoving=1;newEdgeStyle={&quot;edgeStyle&quot;:&quot;elbowEdgeStyle&quot;,&quot;startArrow&quot;:&quot;none&quot;,&quot;endArrow&quot;:&quot;none&quot;};" parent="24" vertex="1">
                        <mxGeometry x="205" y="140" width="120" height="60" as="geometry"/>
                    </mxCell>
                </UserObject>
                <mxCell id="32" value="" style="edgeStyle=elbowEdgeStyle;html=1;elbow=horizontal;startArrow=none;endArrow=none;" parent="24" source="27" target="33" edge="1">
                    <mxGeometry relative="1" as="geometry"/>
                </mxCell>
                <UserObject label="Image&lt;div&gt;&lt;span style=&quot;color: rgb(0, 0, 0);&quot;&gt;type: str&lt;/span&gt;&lt;/div&gt;" treeRoot="1" id="33">
                    <mxCell style="whiteSpace=wrap;html=1;align=center;treeFolding=1;treeMoving=1;newEdgeStyle={&quot;edgeStyle&quot;:&quot;elbowEdgeStyle&quot;,&quot;startArrow&quot;:&quot;none&quot;,&quot;endArrow&quot;:&quot;none&quot;};" parent="24" vertex="1">
                        <mxGeometry x="645" y="40" width="120" height="60" as="geometry"/>
                    </mxCell>
                </UserObject>
                <mxCell id="34" value="" style="edgeStyle=elbowEdgeStyle;html=1;elbow=vertical;startArrow=none;endArrow=none;" parent="24" source="27" target="35" edge="1">
                    <mxGeometry relative="1" as="geometry"/>
                </mxCell>
                <UserObject label="Description&lt;br&gt;type: str" treeRoot="1" id="35">
                    <mxCell style="whiteSpace=wrap;html=1;align=center;treeFolding=1;treeMoving=1;newEdgeStyle={&quot;edgeStyle&quot;:&quot;elbowEdgeStyle&quot;,&quot;startArrow&quot;:&quot;none&quot;,&quot;endArrow&quot;:&quot;none&quot;};" parent="24" vertex="1">
                        <mxGeometry x="425" y="190" width="120" height="60" as="geometry"/>
                    </mxCell>
                </UserObject>
            </root>
        </mxGraphModel>
    </diagram>
</mxfile>